<?xml version="1.0" encoding="UTF-8" standalone="no"?>
<!-- Created with Inkscape (http://www.inkscape.org/) -->

<svg
   version="1.1"
   id="svg1"
   width="470.45645"
   height="471.07883"
   viewBox="0 0 470.45645 471.07882"
   xmlns="http://www.w3.org/2000/svg"
   xmlns:svg="http://www.w3.org/2000/svg">
  <defs
     id="defs1" />
  <g
     id="g1"
     transform="matrix(0.84017166,0,0,0.78619833,-17.989169,-2.678609)">
    <rect
       style="fill:#e9e2d1;fill-opacity:1;stroke-width:0;paint-order:stroke markers fill"
       id="rect18"
       width="559.95276"
       height="599.18573"
       x="21.411303"
       y="3.4070401"
       ry="38.746426" />
    <g
       id="g18"
       transform="matrix(0.88520971,0,0,0.8625498,-454.19578,269.37756)">
      <path
         id="path1"
         style="fill:#000000;stroke-width:1.4647"
         d="m 964.83789,-167.19531 c -11.59335,0.17671 -31.19663,2.39047 -35.69922,4.54687 -7.74097,3.70734 -19.01186,17.0461 -24.30273,28.76367 -7.64421,16.92944 -16.93869,23.97702 -27.94336,21.18946 -4.64324,-1.17602 -4.64263,-2.88363 -0.01,-5.01563 5.59831,-2.57438 4.60668,-5.19265 -1.52734,-4.03125 l -5.17383,0.98047 2.98633,-5.9082 c 1.64228,-3.24896 2.98633,-6.6496 2.98633,-7.5586 0,-3.18604 -3.67539,-0.39115 -6.77344,5.15235 l -3.12695,5.59765 -2.98633,-6.81445 c -1.64269,-3.74797 -3.68037,-6.81445 -4.52735,-6.81445 -1.94551,0 -1.95199,-0.0769 0.58204,7.17187 1.16725,3.33898 1.84013,6.07032 1.49414,6.07032 -0.34599,0 -2.77686,-1.32192 -5.40235,-2.9375 -8.07414,-4.96839 -9.58059,-3.20779 -2.58789,3.02539 5.38042,4.79602 6.16847,6.10578 4.375,7.27343 -1.20282,0.78311 -3.33499,1.43352 -4.73828,1.44532 -1.40329,0.0124 -2.55273,0.68484 -2.55273,1.49414 0,0.80931 2.26352,1.4707 5.02929,1.4707 4.00935,0 5.79804,1.01918 8.82422,5.02344 4.54019,6.00761 7.24786,7.268786 11.11914,5.17773 1.59013,-0.8589 3.63377,-1.31303 4.54102,-1.00781 0.90724,0.30521 -3.887,2.77629 -10.65235,5.490234 -20.92336,8.393497 -34.33369,15.81747 -46.55468,25.77539 -6.46044,5.2641 -11.97123,9.572266 -12.2461,9.572266 -0.27489,0 -0.85463,-2.674389 -1.28906,-5.943359 -1.49758,-11.26863 -5.72551,-12.840002 -15.34375,-5.701172 -6.24314,4.63378 -7.72019,4.337896 -3.88672,-0.777344 1.17732,-1.57097 2.11453,-4.218506 2.08203,-5.884766 -0.0511,-2.61272 -0.65401,-2.329127 -4.375,2.064453 l -4.31445,5.09375 v -5.916015 c 0,-3.25431 -0.96329,-7.202468 -2.14063,-8.773438 -1.96321,-2.61964 -2.14294,-2.154401 -2.18554,5.605469 -0.0255,4.65351 -0.44565,8.460938 -0.93164,8.460938 -0.486,0 -2.18394,-1.669545 -3.77344,-3.708985 -2.52469,-3.23934 -9.72632,-8.064453 -12.03711,-8.064453 -2.16625,0 -0.4336,4.335026 2.05078,5.13086 3.41201,1.092956 10.26953,8.987515 10.26953,11.822265 0,1.49014 -2.25772,1.979119 -8.71484,1.886719 -7.84994,-0.11233 -14.59167,2.273452 -12.4707,4.414062 0.4151,0.41836 5.31399,0.612048 10.88476,0.429688 9.95828,-0.32598 10.16737,-0.254723 12.43946,4.179687 2.9836,5.8231 8.91736,6.074428 15.30664,0.648438 2.50104,-2.12398 4.87001,-3.537945 5.26367,-3.140625 1.65825,1.6736 -1.50023,13.39495 -4.32813,16.0625 -1.68968,1.59385 -11.22531,7.608284 -21.1914,13.365234 -16.67342,9.63147 -31.65186,20.401635 -36.22461,26.0468752 -5.18897,6.4059601 -9.07617,16.5312518 -9.07617,23.6386718 0,14.85247 8.96823,25.085649 26.05859,29.730469 11.89935,3.234 21.69561,2.484469 35.81445,-2.738281 5.66283,-2.09477 14.41218,-4.93847 19.44336,-6.31836 5.03117,-1.37992 9.91849,-3.286711 10.86133,-4.238281 3.08066,-3.10919 -7.79611,-1.989418 -27.38867,2.820312 -14.07307,3.4548 -20.14456,4.307206 -25.20703,3.541016 -20.3833,-3.08498 -29.84177,-14.980132 -22.81446,-28.695312 3.84864,-7.5113561 18.17585,-15.8538361 42.2793,-24.617188 5.61317,-2.04079 15.84667,-6.562638 22.74219,-10.048828 12.31418,-6.22573 12.73728,-6.322608 23.69336,-5.486328 6.13504,0.46827 11.15429,1.091869 11.15429,1.386719 0,0.29484 -1.96936,3.279209 -4.375,6.630859 -4.38032,6.10286 -5.64446,12.0432244 -2.92382,13.7402344 4.08997,2.55114 4.29006,6.35199422 0.62109,11.8085937 -4.94979,7.3614599 -3.49574,12.3127359 1.71875,5.8535159 1.96004,-2.4279241 3.94719,-5.9036696 4.41797,-7.7246096 1.87035,-7.23457 11.24268,-0.7094841 15.31836,10.6660156 1.01498,2.83286 2.7799,5.152344 3.92187,5.152344 3.02376,0 1.07604,-8.307874 -3.44922,-14.714844 -4.25115,-6.01885995 -2.58164,-7.2373264 6,-4.3789062 2.85382,0.9506798 5.56588,1.3466293 6.02735,0.8808593 1.62173,-1.63673955 -2.52218,-4.8743937 -8.67188,-6.7773437 l -6.21289,-1.9238282 4.80469,-2.0253906 c 6.15272,-2.5939106 4.74365,-4.9042966 -2.99024,-4.9042966 h -6.03124 l 4.48437,-4.783203 c 9.67169,-10.31283 10.22382,-15.971941 1.88867,-19.337891 -3.22375,-1.30184 -7.44947,-2.365234 -9.39062,-2.365234 -7.0281,0 -5.00279,-2.766093 3.20508,-4.376954 22.84081,-4.48268 34.36911,-10.397068 48.62304,-24.949218 l 11.0586,-11.291016 2.4375,6.923828 c 2.7436,7.7963 6.87366,10.148438 17.82226,10.148438 8.88348,0 10.61275,1.053515 12.33594,7.509765 1.96011,7.34674 5.0331,7.715974 3.86719,0.464844 l -0.84766,-5.269531 5.1543,3.96875 c 3.52682,2.71495 5.6255,3.489458 6.65039,2.455078 1.0249,-1.0344 -0.41469,-2.790247 -4.5625,-5.560547 -7.10522,-4.74556 -5.90618,-6.453881 4.55468,-6.488281 3.76162,-0.01239 7.19942,-0.608872 7.63868,-1.326172 0.98666,-1.61124 -4.04254,-3.057381 -10.83203,-3.113281 l -5.10352,-0.04102 5.7207,-4.884765 c 7.52334,-6.4238 4.66116,-7.989021 -4.21679,-2.306641 -3.81835,2.44396 -7.27081,4.111801 -7.67188,3.707031 -0.40106,-0.40478 -0.0326,-2.757342 0.82031,-5.226562 2.18076,-6.31366 -0.0654,-5.585191 -3.875,1.255859 -3.8603,6.93209 -6.82201,6.712437 -13.5332,-1.001953 -4.07386,-4.68284 -4.47478,-5.979183 -3.92187,-12.703125 0.33868,-4.11884 2.30578,-11.218723 4.37304,-15.775383 3.23588,-7.13249 5.19328,-9.22053 14.06641,-15.01368 9.01324,-5.88464 32.34003,-28.2761 35.66406,-34.23437 1.8207,-3.26358 -0.30867,-7.96349 -4.30273,-9.49609 -1.22851,-0.47141 -4.20196,-0.63899 -8.06641,-0.58008 z m -18.52344,12.42969 c 3.32316,0 3.64723,3.74682 0.43164,4.99218 -2.9573,1.14537 -4.26567,1.12787 -5.45703,-0.0742 -1.49755,-1.51142 1.9832,-4.91796 5.02539,-4.91796 z M 660.375,82.140625 c -14.79502,0 -18.07433,1.398085 -10.95508,4.671875 2.3802,1.09454 4.58867,4.241296 6.4336,9.166016 1.54502,4.124204 6.82066,18.092104 11.7246,31.041014 4.90396,12.9489 9.22186,24.41659 9.59571,25.48242 0.39836,1.1357 2.32854,1.74405 4.66211,1.47071 3.75404,-0.43973 4.65409,-2.23401 15.72461,-31.36719 6.45822,-16.99544 12.27771,-31.768529 12.93359,-32.830079 0.65586,-1.06156 2.76851,-2.536041 4.69531,-3.275391 6.55363,-2.51477 3.71827,-4.359375 -6.70117,-4.359375 -9.58167,0 -13.34285,1.821162 -8.01953,3.882813 1.20283,0.465856 2.1875,2.420943 2.1875,4.345703 0,3.93615 -14.47445,44.746189 -15.86914,44.742189 -0.78918,-0.002 -14.36918,-35.188856 -16.85938,-43.683596 -0.69106,-2.35739 -0.14425,-3.653634 2.04102,-4.833984 6.00021,-3.24095 2.84587,-4.453125 -11.59375,-4.453125 z m 90.9375,0 c -20.59349,0 -25.32816,0.380146 -25.32812,2.035156 -10e-6,1.11957 1.31225,2.381408 2.91601,2.804688 2.79025,0.73642 2.91406,2.008935 2.91406,29.482421 0,29.8116 -0.40479,33.36523 -3.80078,33.36523 -1.11702,0 -2.02933,1.00802 -2.02929,2.24024 -10e-6,1.93894 3.57714,2.18694 26.59765,1.83984 l 26.59961,-0.40234 1.69141,-7.35547 c 0.93039,-4.04653 1.75503,-8.5173 1.83203,-9.93359 0.25437,-4.67992 -4.12379,-2.67562 -7.125,3.26172 -3.80561,7.52868 -6.54142,8.8789 -17.99805,8.8789 -11.23787,0 -11.1875,0.0774 -11.1875,-17.04297 v -12.38672 h 7.35742 c 5.90256,0 8.0753,0.72596 11,3.67774 2.0047,2.02326 3.94411,3.67969 4.3086,3.67969 0.36449,0 0.66211,-4.30397 0.66211,-9.56446 0,-5.26049 -0.29762,-9.56445 -0.66211,-9.56445 -0.36449,0 -2.3039,1.65446 -4.3086,3.67773 -2.9247,2.95177 -5.09744,3.67969 -11,3.67969 h -7.35742 V 100.5332 86.554688 h 7.92383 c 10.61193,0 14.87959,1.877572 18.55469,8.164062 3.91519,6.6972 5.5206,4.980304 4.53906,-4.853516 l -0.77149,-7.724609 z m 151.6582,0 c -8.411,0 -8.65578,0.17128 -6.37695,4.46875 2.06131,3.88726 -17.42786,56.584645 -22.67383,61.308595 -1.97906,1.78212 -3.59765,3.93508 -3.59765,4.7832 0,0.91693 3.84151,1.54102 9.47656,1.54102 7.12833,0 9.47656,-0.50701 9.47656,-2.04883 0,-1.12738 -0.98468,-2.43066 -2.1875,-2.89648 -2.63526,-1.02064 -2.82612,-7.03875 -0.43555,-13.71094 l 1.75196,-4.88672 h 12.86328 c 12.68672,0 12.88763,0.0564 14.41601,4.04687 0.85242,2.22559 1.91259,6.23574 2.35547,8.91211 0.67726,4.09258 0.30779,4.99685 -2.3164,5.68946 -1.7161,0.45292 -3.11914,1.76228 -3.11914,2.91015 0,2.82496 29.32159,2.25336 30.25586,-0.58984 0.3324,-1.01163 -0.33315,-1.8397 -1.47852,-1.83985 -1.14536,0 -3.08997,-1.15792 -4.32031,-2.57421 -1.76862,-2.03595 -11.62126,-26.43425 -25.25586,-62.539066 -0.76011,-2.01281 -2.68802,-2.574219 -8.83399,-2.574219 z m 57.58008,0 c -10.23283,0 -13.05685,1.857861 -6.59375,4.337891 1.89532,0.72727 3.86274,2.421526 4.37305,3.763672 0.51031,1.342149 0.92773,14.284622 0.92773,28.761722 v 26.32226 l -4.3164,3.22071 c -2.37416,1.77153 -3.97537,3.77836 -3.5586,4.45898 1.16744,1.90644 20.9961,1.5375 20.9961,-0.39063 0,-0.89516 -1.63985,-2.92997 -3.64453,-4.52148 -3.61758,-2.87189 -3.64436,-3.06752 -3.56836,-25.96289 0.0672,-20.26109 0.32598,-22.709788 2.1289,-20.125 1.129,1.61861 10.48772,13.8691 20.79688,27.22266 12.5188,16.21567 19.8017,24.434 21.9277,24.74804 l 3.1836,0.47071 v -30.88282 c 0,-16.98553 0.4175,-31.980118 0.9278,-33.322262 0.5103,-1.342141 2.4777,-3.036402 4.373,-3.763672 6.6536,-2.5531 3.5725,-4.337891 -7.4883,-4.337891 -6.0141,0 -10.9355,0.472248 -10.9355,1.048828 0,0.57657 1.6663,2.397845 3.7011,4.046875 3.6741,2.97724 3.6957,3.135346 3.2793,22.861332 l -0.4179,19.86523 -18.02737,-23.91016 -18.02539,-23.912105 z m 84.72652,0 c -15.1528,0 -17.3322,1.053746 -10.9335,5.285156 l 3.6445,2.410157 v 28.490232 28.49024 l -3.6328,2.40234 c -1.9978,1.32114 -3.2714,2.99212 -2.8301,3.71289 1.0892,1.77878 28.332,1.68783 28.332,-0.0937 0,-0.77252 -1.6803,-3.10065 -3.7344,-5.17383 l -3.7343,-3.76953 0.4531,-27.38867 c 0.4401,-26.525228 0.5574,-27.459478 3.7344,-29.585938 1.8042,-1.20765 3.2812,-2.775738 3.2812,-3.486328 0,-0.7106 -6.5613,-1.292969 -14.5801,-1.292969 z m -231.45113,0.0332 c -20.33451,-0.03162 -25.37199,1.218838 -17.33008,4.304688 1.89533,0.72727 3.86273,2.421531 4.37305,3.763672 1.20929,3.18057 1.20929,52.719815 0,55.900395 -0.51032,1.34214 -2.51734,3.04912 -4.46094,3.79492 -1.94358,0.7458 -3.12737,2.01926 -2.63086,2.83008 1.17538,1.91942 27.9813,1.92487 29.15625,0.01 0.49347,-0.80586 -0.78015,-2.23703 -2.83007,-3.17968 -3.56382,-1.63882 -3.72657,-2.25078 -3.72657,-13.98438 0,-12.0302 0.0706,-12.27148 3.56055,-12.27148 2.95389,0 4.95384,2.39086 11.75195,14.04882 8.96568,15.37506 10.95331,16.85157 22.68946,16.85157 8.43723,0 9.52795,-2.52649 2.53906,-5.88477 -3.3061,-1.58864 -6.54828,-5.68951 -11.56641,-14.6289 l -6.9707,-12.41993 5.24023,-3.1914 c 6.54262,-3.9852 9.088,-8.51251 9.1543,-16.28125 0.064,-7.504574 -4.0114,-13.138612 -12.22656,-16.904302 -4.88417,-2.23882 -9.65811,-2.731313 -26.72266,-2.757813 z m 2.55078,4.38086 h 5.17578 c 14.77453,0 22.25251,15.745845 12.63672,26.607425 -3.1273,3.53246 -5.63133,4.76204 -10.93359,5.36523 l -6.87891,0.78321 v -16.37891 z m 84.5625,11.771484 c 1.03082,0 10.20508,23.946411 10.20508,26.636721 0,1.72927 -18.53446,1.72608 -19.59375,-0.006 -0.97351,-1.58976 7.85469,-26.630861 9.38867,-26.630861 z" />
      <text
         xml:space="preserve"
         style="font-weight:bold;font-size:27.8251px;line-height:0;font-family:'PT Serif';-inkscape-font-specification:'PT Serif Bold';text-align:start;letter-spacing:0px;word-spacing:4.47189px;writing-mode:lr-tb;direction:ltr;text-anchor:start;fill:#ece4d6;stroke-width:0;paint-order:stroke markers fill"
         x="653.37274"
         y="202.63893"
         id="text18"
         transform="scale(1.0030362,0.99697301)"><tspan
           id="tspan18"
           x="653.37274"
           y="202.63893"
           style="font-size:27.8251px;fill:#000000;stroke-width:0">ONLINE FASHION BOUTIQUE</tspan></text>
    </g>
  </g>
</svg>
